<?xml version="1.0" encoding="UTF-8"?><svg id="Layer_2" xmlns="http://www.w3.org/2000/svg" viewBox="0 0 179.56 179.81"><defs><style>.cls-1{fill:#fff;}</style></defs><g id="Reverse_Star_Mark"><path class="cls-1" d="M0,0V179.81H179.56V0H0ZM140.94,89.17l13.84,30.83h-9.65l-4.2-10.25-4.2,10.25h-9.64l13.85-30.83Zm-79.39,58.28c-3.64,1.24-9.2,2.71-18.08,2.71-18.23,0-30.43-11.78-30.43-30.1s12.95-29.62,30.51-29.62c8.34,0,12.05,1.24,17.32,3.05l-.79,9.96c-4.85-3.17-8.98-4.43-16.13-4.43-12.55,0-20.94,9.08-20.88,21.28,.06,13.12,9.18,21.28,20.47,21.28,3.36,0,6.23-.25,8.28-.79v-14.95h-10.86v-8.42h20.58v30.03Zm25.69,2.71c-4.06-.13-8.01-1.16-12.32-2.56l.98-9.08c3.64,1.5,8.37,3.12,12.32,3.06,5.16-.08,10.33-2.48,10.33-8.45,0-4.61-3.69-6.87-7.25-8.68-7.89-4-16.96-6.77-16.96-17.95,0-10.56,8.4-16.07,18.82-16.07,3.79,0,8.31,.66,12.84,2.26l-1.36,8.94c-4.94-1.94-7.1-2.63-11.16-2.63-4.49,0-9.11,1.58-9.11,6.76,0,4.05,4.16,6.15,7.25,7.69,8.38,4.18,16.96,7.61,16.96,19.17,0,12.62-9.91,17.88-21.34,17.52Zm36.69-1.01h-9.89l12.89-28.79,6.87,6.43-5.08,11.6,12.19-6.39,7.02,5.4-24.01,11.74Zm33.77,0l-9.63-22.35,6.87-6.43,12.88,28.79h-10.13Z"/></g></svg>