<?xml version="1.0" encoding="utf-8"?>
<!-- Generator: Adobe Illustrator 27.1.1, SVG Export Plug-In . SVG Version: 6.00 Build 0)  -->
<svg version="1.1" id="Layer_1" xmlns="http://www.w3.org/2000/svg" xmlns:xlink="http://www.w3.org/1999/xlink" x="0px" y="0px"
	 viewBox="0 0 491.1 186.7" style="enable-background:new 0 0 491.1 186.7;" xml:space="preserve">
<style type="text/css">
	.st0{fill:#FFFFFF;}
	.st1{fill:#00548F;stroke:#FFFFFF;stroke-miterlimit:10;}
</style>
<rect x="1.9" y="2.3" class="st0" width="157.5" height="157.6"/>
<g>
	<polygon class="st1" points="128.9,109.1 125.4,100.5 121.6,109.1 113,109.1 125.1,82.6 137.2,109.1 	"/>
	<polygon class="st1" points="118.4,114.9 114,125 124.8,119.4 130.7,124.1 109.7,134.4 101.4,134.4 112.5,109.5 	"/>
	<polygon class="st1" points="148.1,134.4 139.1,134.4 131,115.1 136.8,109.4 	"/>
</g>
<path class="st1" d="M95,84.2c0,0-1.2,7.5-1.1,7.8c-4.7-2.3-11.3-3.7-15.7-1.3c-2.2,1.2-3,4.6-2,7.2c7.2,7.9,20,6,20.7,21.3
	c0.2,4.9-2.4,8.6-4.8,10.9c-6.7,5.3-16.5,4.9-24.3,2.1l0.8-8.3c4.5,2.4,12.9,4.7,17.8,0.1c1.7-1.6,2.1-4.2,1.9-6.9
	c-2.8-8.1-24.9-7.8-20.8-24.7c1-4,4.4-7.6,8.5-9.1C81.7,80.9,89.4,82.4,95,84.2z"/>
<path class="st1" d="M54.4,85.2l-0.3,8.3c-6.1-3.9-17-5.4-24.1-1.2c-6.3,3.7-8.3,9.1-8.4,15.8c-0.1,7.1,2.7,13.7,9.7,17.4
	c4.6,2.4,15.3,1.2,15.3,1.2L46.5,114h-9.2l0.1-7.8h17.8v26.6c-9.8,2.9-22.7,3.1-31.3-2.7c-9.2-6.3-10.8-13.9-10.8-22
	c0-10.8,6.5-22.3,19.2-24.8C40.8,81.7,48.7,83,54.4,85.2z"/>
<g>
	<path class="st0" d="M191.2,121c1.4,3.8,4.9,11.8,16.2,11.8c8.2,0,14-4.5,14-11.1c0-6.6-7-9.8-14.7-12.5
		c-6.7-2.3-15.3-5.4-15.3-13.8c0-7.3,5.7-11.8,15.1-11.8c9.4,0,13.3,5,16.2,8.9l-2.3,3.2c-1.4-2.6-5-9.2-13.5-9.2
		c-7.3,0-11.9,3.5-11.9,9c0,4.3,3.2,6.8,13.3,10.4c9.6,3.4,16.7,7,16.7,15.4c0,8.8-7.2,14.7-17.8,14.7c-11.9,0-17.6-9.2-18.8-12.7
		L191.2,121z"/>
	<path class="st0" d="M234.2,107.3c1.9-3.5,4.5-8.1,11.2-8.1c7.2,0,9.2,5.6,10.1,8.3c1.1-2.5,3.4-8.3,11.4-8.3
		c6.5,0,10.7,5.2,10.7,13v22.2h-3v-20.8c0-7.4-3.1-11.8-8.3-11.8c-5.9,0-10.4,5.1-10.4,11.9v20.7h-3v-22.8c0-5.6-3.3-9.9-7.9-9.9
		c-5.9,0-10.8,5.5-10.8,11.9v20.7h-3v-34h3L234.2,107.3L234.2,107.3z"/>
	<path class="st0" d="M310,128.6c0,2.3,1,3.9,2.6,3.9c0.4,0,1-0.1,1.7-0.3v2.8c-1,0.3-1.7,0.3-2.2,0.3c-2.8,0-4.7-2.3-5-6.5
		c-1.7,2.2-5,6.4-12.5,6.4c-6.1,0-11-4.7-11-10.5c0-9,9.8-11,14.5-11.8c5.5-1,6.3-1.3,9-3.4c0.2-6.8-5.5-7.4-8.7-7.4
		c-6.4,0-10.1,2.3-11.6,7.5l-2.3-2c1.1-2.8,3.4-8.1,14.2-8.1c4,0,7.2,1.1,9.3,3.1c1.7,1.7,2.1,3.2,2.1,7.2v18.8H310z M307,112.7
		c-3.2,1.7-4.2,2-8.7,2.8c-8.8,1.5-11.6,5-11.6,8.9c0,4.9,3.5,8.2,8.8,8.2c6.6,0,11.6-4.5,11.6-10.4L307,112.7L307,112.7z"/>
	<path class="st0" d="M322.4,112c1.3-4.3,3.9-12.7,10.6-12.7c1.2,0,2.1,0.2,3.9,1l-0.2,3.4c-1.8-1-2.8-1.4-4.1-1.4
		c-8.3,0-10,14.3-10,18.1v13.9h-3v-34h2.8L322.4,112L322.4,112z"/>
	<path class="st0" d="M349.1,85.2v15.1h8.5v2.8h-8.5v25.1c0,3,1.4,4.3,4.8,4.3c0.8,0,1.6-0.1,3.5-0.4v2.5c-2,0.3-3.4,0.5-4.4,0.5
		c-4.5,0-7-2.1-7-6.1v-26h-7v-2.8h7V86.8L349.1,85.2z"/>
	<path class="st0" d="M364.7,84.7h18.6c9,0,15.2,5.7,15.2,13.9c0,8.7-5.9,13.9-15.8,13.9H368v21.8h-3.3L364.7,84.7L364.7,84.7z
		 M368,87.5v22.2h13.7c8.4,0,13.4-4.1,13.4-11.2c0-6.5-4.9-11-12.1-11H368z"/>
	<path class="st0" d="M428.6,128.6c0,2.3,1,3.9,2.6,3.9c0.4,0,1-0.1,1.7-0.3v2.8c-1,0.3-1.7,0.3-2.2,0.3c-2.8,0-4.7-2.3-5-6.5
		c-1.7,2.2-5,6.4-12.5,6.4c-6.1,0-11-4.7-11-10.5c0-9,9.8-11,14.5-11.8c5.5-1,6.3-1.3,9-3.4c0.2-6.8-5.5-7.4-8.7-7.4
		c-6.4,0-10.1,2.3-11.6,7.5l-2.3-2c1.1-2.8,3.4-8.1,14.2-8.1c4,0,7.2,1.1,9.3,3.1c1.7,1.7,2.1,3.2,2.1,7.2v18.8H428.6z M425.7,112.7
		c-3.2,1.7-4.2,2-8.7,2.8c-8.8,1.5-11.6,5-11.6,8.9c0,4.9,3.5,8.2,8.8,8.2c6.6,0,11.6-4.5,11.6-10.4L425.7,112.7L425.7,112.7z"/>
	<path class="st0" d="M434.1,100.3h2.8l11.6,31.1l10.1-31.1h2.7l-12.2,38.3c-2.1,6.8-4.5,8.8-10.3,8.8h-2.9l0.1-2.8h3.2
		c5,0,5.9-2.2,8.1-9.2L434.1,100.3z"/>
	<path class="st0" d="M475.7,89.8c0,4.3-3.5,7.7-7.7,7.7c-4.3,0-7.7-3.5-7.7-7.7c0-4.3,3.5-7.7,7.7-7.7
		C472.3,82.1,475.7,85.6,475.7,89.8z M461.5,89.8c0,3.6,2.9,6.5,6.5,6.5c3.5,0,6.4-2.9,6.4-6.5c0-3.5-2.9-6.4-6.4-6.4
		C464.4,83.4,461.5,86.3,461.5,89.8z M464.6,94.1v-8.3h2.9c1.3,0,1.7,0,2.3,0.3c0.7,0.3,1.3,1.1,1.3,1.9c0,1.3-1,2.3-2.4,2.4
		c0.6,0.3,1.1,0.8,1.9,2.1l1,1.6H470l-0.7-1.3c-1.1-1.9-1.4-2.2-2.5-2.2H466v3.5H464.6z M465.9,89.4h1.6c1.4,0,2-0.4,2-1.3
		s-0.6-1.2-2.1-1.2h-1.5V89.4z"/>
</g>
<g>
	<path class="st0" d="M191.1,173.7c0.1,1.5,0.4,2.3,1.1,3.1c0.8,0.8,1.9,1.1,3.4,1.1c2.5,0,4.1-1.5,4.1-3.8c0-1.5-0.8-2.6-3.4-4.3
		c-2-1.3-3.8-2.7-3.8-5.7s2.5-5.2,6-5.2c2.1,0,3.8,0.7,4.9,2.1c0.4,0.5,0.6,0.9,0.9,1.9l-2.1,1.6c-0.2-2-1.7-3.2-4-3.2
		c-2,0-3.3,1.1-3.3,2.8c0,1.1,0.8,2,2.9,3.3c2.2,1.3,4.5,3.2,4.5,6.4c0,3.9-2.9,6.4-7.1,6.4c-1.8,0-3.4-0.5-4.5-1.4
		c-1-0.8-1.3-1.5-1.8-3.4L191.1,173.7z"/>
	<path class="st0" d="M207.3,165.8h2.3l-2,8c-0.2,0.7-0.3,1.4-0.3,1.8c0,1.4,1,2.3,2.4,2.3c2,0,3.6-1.5,4.2-4l2-8.2h2.3l-3.4,13.8
		h-2.3l0.5-2.2c-0.8,0.9-2.3,2.4-4.6,2.4c-2.1,0-3.6-1.5-3.6-3.7c0-0.6,0.2-1.5,0.4-2.5L207.3,165.8z"/>
	<path class="st0" d="M222.9,167.9c1.3-1.8,2.3-2.4,3.9-2.4c2.4,0,4.1,2.1,4.1,5.2c0,5-3,9.3-6.5,9.3c-2.8,0-3.4-1.9-3.7-2.9l-2,8
		h-2.2l4.7-19.2h2.3L222.9,167.9z M228.5,170.6c0-1.9-1-3.2-2.6-3.2c-3.3,0-4.6,6.2-4.6,7.8c0,1.7,1,2.9,2.5,2.9
		C226.3,178.1,228.5,174.6,228.5,170.6z"/>
	<path class="st0" d="M236.5,167.9c1.3-1.8,2.3-2.4,3.9-2.4c2.4,0,4.1,2.1,4.1,5.2c0,5-3,9.3-6.5,9.3c-2.8,0-3.4-1.9-3.7-2.9l-2,8
		h-2.2l4.7-19.2h2.3L236.5,167.9z M242.1,170.6c0-1.9-1-3.2-2.6-3.2c-3.3,0-4.6,6.2-4.6,7.8c0,1.7,1,2.9,2.5,2.9
		C239.9,178.1,242.1,174.6,242.1,170.6z"/>
	<path class="st0" d="M245.5,174.3c0-5,3.5-8.8,8-8.8c3.5,0,5.7,2.2,5.7,5.9c0,4.8-3.5,8.7-7.8,8.7
		C247.7,180,245.5,177.9,245.5,174.3z M256.8,171.2c0-2.3-1.3-3.8-3.3-3.8c-3.2,0-5.5,3-5.5,7c0,2.4,1.3,3.8,3.3,3.8
		C254.4,178.2,256.8,175.2,256.8,171.2z"/>
	<path class="st0" d="M262.5,165.8h2.3l-1.4,5.6l2.4-4.6c0.5-0.9,1.6-1.2,1.9-1.2s0.7,0.1,1.3,0.4l-0.4,2.3
		c-0.6-0.3-0.9-0.4-1.3-0.4c-1,0-1.8,0.7-2.7,2.5c-0.9,1.6-1.8,3.6-2,4.7l-1.1,4.5h-2.3L262.5,165.8z"/>
	<path class="st0" d="M273.4,160.3l2.5-0.7l-1.7,6.2h2l-0.4,1.8h-2.1l-2.4,8.7c-0.1,0.3-0.1,0.5-0.1,0.7c0,0.7,0.5,1.1,1.5,1.1
		c0.7,0,1.7-0.2,2.6-0.5l-0.5,2l-0.6,0.1c-1,0.3-1.6,0.3-2.5,0.3c-2,0-3-0.8-3-2.4c0-0.4,0.1-0.9,0.2-1.3l2.5-8.7h-1.9l0.5-1.8h2
		L273.4,160.3z"/>
	<path class="st0" d="M279.6,165.8h2.3l-3.4,13.8h-2.3L279.6,165.8z M281.3,160.1h2l-0.6,2.6h-2L281.3,160.1z"/>
	<path class="st0" d="M286.5,168.1c1.1-1.1,2.5-2.5,4.5-2.5c2.2,0,3.7,1.5,3.7,3.6c0,0.4-0.1,0.8-0.2,1.2l-2.2,9.2H290l2.1-8.9
		c0.1-0.4,0.1-0.7,0.1-1.1c0-1.4-0.9-2.2-2.4-2.2c-2,0-3.6,1.7-4.3,4.3l-1.9,7.9h-2.3l3.4-13.8h2.2L286.5,168.1z"/>
	<path class="st0" d="M303.5,177.8c-1.1,1.5-2.3,2.2-3.7,2.2c-2.5,0-4.2-2.2-4.2-5.5c0-4.9,3.1-9.1,6.7-9.1c1.8,0,3,1,3.5,2.9
		l0.7-2.6h2.3l-3.8,15.2c-0.6,2.5-2.6,3.9-5.5,3.9c-2.8,0-4.5-1-5.5-3.2l2-0.8c0.8,1.5,1.7,2.2,3.5,2.2s2.9-0.8,3.3-2.5L303.5,177.8
		z M304.1,175.1c0.6-1.7,1.1-3.8,1.1-5c0-1.6-1-2.8-2.5-2.8c-3.3,0-4.6,5.1-4.6,7.3c0,1.7,0.7,3.4,2.6,3.4
		C302.1,178,303.3,177,304.1,175.1z"/>
	<path class="st0" d="M314.3,165.8h2l1.1,10.6l5.3-10.6h2.2l-7.6,15.3c-1.3,2.5-2,3.9-5,3.9c-0.6,0-1,0-1.9-0.1l0.5-1.8
		c0.5,0.1,0.9,0.1,1.1,0.1c2,0,2.4-0.8,3.6-3.4L314.3,165.8z"/>
	<path class="st0" d="M323.9,174.3c0-5,3.5-8.8,8-8.8c3.5,0,5.7,2.2,5.7,5.9c0,4.8-3.5,8.7-7.8,8.7C326,180,323.9,177.9,323.9,174.3
		z M335.1,171.2c0-2.3-1.3-3.8-3.3-3.8c-3.2,0-5.5,3-5.5,7c0,2.4,1.3,3.8,3.3,3.8C332.8,178.2,335.1,175.2,335.1,171.2z"/>
	<path class="st0" d="M340.7,165.8h2.3l-2,8c-0.2,0.7-0.3,1.4-0.3,1.8c0,1.4,1,2.3,2.4,2.3c2,0,3.6-1.5,4.2-4l2-8.2h2.3l-3.4,13.8
		h-2.3l0.5-2.2c-0.8,0.9-2.3,2.4-4.6,2.4c-2.1,0-3.6-1.5-3.6-3.7c0-0.6,0.2-1.5,0.4-2.5L340.7,165.8z"/>
	<path class="st0" d="M354.2,165.8h2.3l-1.4,5.6l2.4-4.6c0.5-0.9,1.6-1.2,1.9-1.2s0.7,0.1,1.3,0.4l-0.4,2.3
		c-0.6-0.3-0.9-0.4-1.3-0.4c-1,0-1.8,0.7-2.7,2.5c-0.9,1.6-1.8,3.6-2,4.7l-1.1,4.5h-2.3L354.2,165.8z"/>
	<path class="st0" d="M368.8,168c0.8-0.9,2.3-2.4,4.4-2.4c1.9,0,3.2,1,3.5,3c0.6-0.7,2.4-3,4.9-3c2,0,3.5,1.4,3.5,3.4
		c0,0.3-0.1,0.7-0.1,1l-2.4,9.7h-2.3l2.2-9.1c0.1-0.4,0.1-0.7,0.1-1.1c0-1.3-0.8-2-2.3-2c-2,0-3.5,1.4-4,3.7l-2.1,8.5h-2.3l2.3-9.3
		c0.1-0.3,0.1-0.5,0.1-0.8c0-1.3-0.9-2.1-2.4-2.1c-2,0-3.5,1.5-4.1,4.1l-2,8h-2.3l3.4-13.8h2.2L368.8,168z"/>
	<path class="st0" d="M389.1,165.8h2.3l-3.4,13.8h-2.3L389.1,165.8z M390.9,160.1h2l-0.6,2.6h-2L390.9,160.1z"/>
	<path class="st0" d="M392.5,175.3c0.6,1.5,1.2,2.8,3.9,2.8c2,0,3.1-0.8,3.1-2c0-1.1-0.7-1.7-2.7-2.4c-1.5-0.5-3.9-1.4-3.9-4.1
		c0-2.4,2.1-4.2,5-4.2c3.3,0,4.5,2.2,4.9,3.1l-1.9,1c-1-1.5-1.9-2.1-3.4-2.1c-1.4,0-2.5,0.9-2.5,2c0,1,0.7,1.6,2.7,2.3
		c1.1,0.4,4.1,1.4,4.1,4.2c0,2.6-2.1,4.2-5.5,4.2c-4.2,0-5-1.7-5.7-3.9L392.5,175.3z"/>
	<path class="st0" d="M404.3,175.3c0.6,1.5,1.2,2.8,3.9,2.8c2,0,3.1-0.8,3.1-2c0-1.1-0.7-1.7-2.7-2.4c-1.5-0.5-3.9-1.4-3.9-4.1
		c0-2.4,2.1-4.2,5-4.2c3.3,0,4.5,2.2,4.9,3.1l-1.9,1c-1-1.5-1.9-2.1-3.4-2.1c-1.4,0-2.5,0.9-2.5,2c0,1,0.7,1.6,2.7,2.3
		c1.1,0.4,4.1,1.4,4.1,4.2c0,2.6-2.1,4.2-5.5,4.2c-4.2,0-5-1.7-5.7-3.9L404.3,175.3z"/>
	<path class="st0" d="M418.7,165.8h2.3l-3.4,13.8h-2.3L418.7,165.8z M420.4,160.1h2l-0.6,2.6h-2L420.4,160.1z"/>
	<path class="st0" d="M421.2,174.3c0-5,3.5-8.8,8-8.8c3.5,0,5.7,2.2,5.7,5.9c0,4.8-3.5,8.7-7.8,8.7
		C423.4,180,421.2,177.9,421.2,174.3z M432.5,171.2c0-2.3-1.3-3.8-3.3-3.8c-3.2,0-5.5,3-5.5,7c0,2.4,1.3,3.8,3.3,3.8
		C430.1,178.2,432.5,175.2,432.5,171.2z"/>
	<path class="st0" d="M440,168.1c1.1-1.1,2.5-2.5,4.5-2.5c2.2,0,3.7,1.5,3.7,3.6c0,0.4-0.1,0.8-0.2,1.2l-2.2,9.2h-2.3l2.1-8.9
		c0.1-0.4,0.1-0.7,0.1-1.1c0-1.4-0.9-2.2-2.4-2.2c-2,0-3.6,1.7-4.3,4.3l-1.9,7.9h-2.3l3.4-13.8h2.2L440,168.1z"/>
</g>
</svg>
